<svg width="16" height="17" viewBox="0 0 16 17" fill="none" xmlns="http://www.w3.org/2000/svg">
<path d="M12.1014 1.53158C13.3179 2.2193 14.2712 3.17368 14.9613 4.39474C15.6514 5.61579 16 6.98421 16 8.5C16 10.0158 15.6585 11.3842 14.9613 12.6053C14.2641 13.8263 13.3179 14.7807 12.1014 15.4684C10.8848 16.1561 9.5189 16.5 7.99644 16.5C6.47399 16.5 5.10805 16.1561 3.89151 15.4684C2.67497 14.7807 1.72165 13.8263 1.03157 12.6053C0.341485 11.3842 0 10.0158 0 8.5C0 6.98421 0.341485 5.61579 1.03157 4.39474C1.72165 3.17368 2.66785 2.2193 3.88439 1.53158C5.10093 0.84386 6.46687 0.5 7.98933 0.5C9.51178 0.5 10.8777 0.84386 12.0943 1.53158H12.1014ZM11.3544 14.2754C12.3433 13.707 13.1187 12.9211 13.6665 11.9035C14.2214 10.893 14.4989 9.75614 14.4989 8.49298C14.4989 7.22982 14.2214 6.09298 13.6665 5.08246C13.1116 4.07193 12.3361 3.27895 11.3544 2.71053C10.3655 2.14211 9.24144 1.85439 7.98933 1.85439C6.73722 1.85439 5.62028 2.14211 4.63139 2.71053C3.64251 3.27895 2.86705 4.06491 2.31214 5.08246C1.75723 6.09298 1.47977 7.22982 1.47977 8.49298C1.47977 9.75614 1.75723 10.893 2.31214 11.9035C2.86705 12.914 3.63539 13.707 4.63139 14.2754C5.62028 14.8439 6.73722 15.1316 7.98933 15.1316C9.24144 15.1316 10.3584 14.8439 11.3544 14.2754ZM9.23433 6.26842L6.86527 6.39474L6.7799 5.13158H11.1979V9.48947L9.9173 9.40526L10.0454 7.06842L5.41396 11.8684L4.36816 10.8368L9.23433 6.26842Z" fill="white"/>
</svg>