<svg width="26" height="19" viewBox="0 0 26 19" fill="none" xmlns="http://www.w3.org/2000/svg">
<g clip-path="url(#clip0_2016_340)">
<path d="M25.9996 11.3117C25.0092 13.7862 23.3842 15.6862 21.1246 17.0118C18.8651 18.3373 16.1568 19.0001 12.9996 19.0001C9.84249 19.0001 7.13416 18.3373 4.87463 17.0118C2.61511 15.6862 0.99011 13.7862 -0.000366211 11.3117L3.34249 10.6048C4.1163 12.3722 5.33892 13.6978 6.9794 14.5815C8.63535 15.4652 10.6318 15.9071 12.9996 15.9071C15.3675 15.9071 17.3484 15.4652 19.0044 14.5815C20.6603 13.6978 21.8675 12.3722 22.6413 10.6048L25.9842 11.3117H25.9996ZM7.01035 5.30245L5.19963 2.56291L3.38892 5.30245H0.231777L4.13178 0.00012207H6.31392L10.2139 5.30245H7.01035ZM22.5639 5.30245L20.7532 2.56291L18.9425 5.30245H15.7853L19.6853 0.00012207H21.8675L25.7675 5.30245H22.5639Z" fill="black"/>
</g>
<defs>
<clipPath id="clip0_2016_340">
<rect width="26" height="19" fill="white"/>
</clipPath>
</defs>
</svg>
