<svg width="31" height="24" viewBox="0 0 31 24" fill="none" xmlns="http://www.w3.org/2000/svg">
<g clip-path="url(#clip0_2015_329)">
<path d="M4.71057 7.57268C4.79862 6.03176 5.41499 5.19525 6.55968 4.84304C7.83645 4.4468 8.67295 4.84304 9.72959 6.20786C10.9623 5.8263 12.019 6.22254 12.8995 7.39658C13.2077 6.6041 12.5473 5.37136 11.5787 5.50344C10.1699 5.67954 9.33335 4.84304 8.27672 4.31472C8.23269 4.31472 8.18866 4.22667 8.14464 4.18264C8.10061 2.72977 10.1258 1.62911 11.5787 2.06937C11.8429 2.15743 12.3712 2.02535 12.5473 1.80521C14.4844 -0.660267 18.4909 -0.396109 19.9878 2.1134C19.1953 2.68574 18.4028 3.30211 17.6103 3.83043C17.3902 4.00654 17.038 4.05056 16.8179 4.18264C16.2455 4.49083 15.6732 4.84304 15.1448 5.41539C16.994 4.18264 18.4909 4.2707 19.5915 6.29591C19.9437 5.50344 19.5915 5.01915 18.1386 4.18264C18.8871 2.64172 21.1324 2.59769 22.1891 4.13862C22.5853 4.71096 22.9816 4.84304 23.642 4.93109C24.2143 5.01915 24.9187 5.32733 25.315 5.7676C25.6672 6.16384 25.8433 6.86826 25.8433 7.4406C25.8433 7.61671 25.0508 7.88087 24.6105 7.96892C18.2707 9.20166 11.8869 9.11361 5.54707 7.92489C5.28292 7.88087 5.01876 7.79281 4.71057 7.70476V7.57268Z" fill="black"/>
<path d="M29.8497 18.5353C28.661 15.0131 27.2962 7.44059 25.9314 8.10098L24.9188 8.40917C18.667 9.90607 12.4153 10.0822 6.11947 8.6293L5.63518 8.54125C5.63518 8.54125 3.65399 8.40917 2.81749 9.99412C2.72943 10.0381 2.72943 10.1702 2.68541 10.2583L0.1759 18.4472C-0.352418 20.2523 0.352006 21.441 2.15709 21.8372C6.77987 22.8499 11.4026 23.3341 18.1387 23.2461C21.6608 23.2461 24.0382 22.4536 27.9566 21.7932C29.6296 21.5291 30.3781 20.1642 29.8497 18.5353ZM27.5604 20.2523C23.3779 21.1768 19.1513 21.5291 15.1449 21.6171C10.6982 21.5291 6.55974 21.1328 2.46528 20.2523C1.58475 20.0762 1.40864 19.724 1.6728 18.9315C2.42125 16.378 3.21373 13.7804 3.91815 11.2269C4.18231 10.3023 4.53452 9.9501 5.59116 10.1702C11.931 11.403 18.2708 11.3589 24.6106 10.1702C25.4471 9.99412 25.7993 10.2583 26.0194 11.0067C26.7679 13.6483 27.5604 16.2899 28.3528 18.9315C28.573 19.6799 28.4409 20.0762 27.5604 20.2523Z" fill="black"/>
<g clip-path="url(#clip1_2015_329)">
<path d="M19.5521 17.3886C19.1864 18.3486 18.5864 19.0857 17.7521 19.6C16.9179 20.1143 15.9179 20.3714 14.7521 20.3714C13.5864 20.3714 12.5864 20.1143 11.7521 19.6C10.9179 19.0857 10.3179 18.3486 9.95215 17.3886L11.1864 17.1143C11.4721 17.8 11.9236 18.3143 12.5293 18.6571C13.1407 19 13.8779 19.1714 14.7521 19.1714C15.6264 19.1714 16.3579 19 16.9693 18.6571C17.5807 18.3143 18.0264 17.8 18.3121 17.1143L19.5464 17.3886H19.5521ZM12.5407 15.0571L11.8721 13.9943L11.2036 15.0571H10.0379L11.4779 13H12.2836L13.7236 15.0571H12.5407ZM18.2836 15.0571L17.615 13.9943L16.9464 15.0571H15.7807L17.2207 13H18.0264L19.4664 15.0571H18.2836Z" fill="black"/>
</g>
</g>
<defs>
<clipPath id="clip0_2015_329">
<rect width="30.0261" height="23.29" fill="white"/>
</clipPath>
<clipPath id="clip1_2015_329">
<rect width="9.6" height="7.37143" fill="white" transform="translate(9.95227 13)"/>
</clipPath>
</defs>
</svg>
