<svg width="16" height="16" viewBox="0 0 16 16" fill="none" xmlns="http://www.w3.org/2000/svg">
<path d="M12.1014 1.03158C13.3179 1.7193 14.2712 2.67368 14.9613 3.89474C15.6514 5.11579 16 6.48421 16 8C16 9.51579 15.6585 10.8842 14.9613 12.1053C14.2641 13.3263 13.3179 14.2807 12.1014 14.9684C10.8848 15.6561 9.5189 16 7.99644 16C6.47399 16 5.10805 15.6561 3.89151 14.9684C2.67497 14.2807 1.72165 13.3263 1.03157 12.1053C0.341485 10.8842 0 9.51579 0 8C0 6.48421 0.341485 5.11579 1.03157 3.89474C1.72165 2.67368 2.66785 1.7193 3.88439 1.03158C5.10093 0.34386 6.46687 0 7.98933 0C9.51178 0 10.8777 0.34386 12.0943 1.03158H12.1014ZM11.3544 13.7754C12.3433 13.207 13.1187 12.4211 13.6665 11.4035C14.2214 10.393 14.4989 9.25614 14.4989 7.99298C14.4989 6.72982 14.2214 5.59298 13.6665 4.58246C13.1116 3.57193 12.3361 2.77895 11.3544 2.21053C10.3655 1.64211 9.24144 1.35439 7.98933 1.35439C6.73722 1.35439 5.62028 1.64211 4.63139 2.21053C3.64251 2.77895 2.86705 3.56491 2.31214 4.58246C1.75723 5.59298 1.47977 6.72982 1.47977 7.99298C1.47977 9.25614 1.75723 10.393 2.31214 11.4035C2.86705 12.414 3.63539 13.207 4.63139 13.7754C5.62028 14.3439 6.73722 14.6316 7.98933 14.6316C9.24144 14.6316 10.3584 14.3439 11.3544 13.7754ZM9.23433 5.76842L6.86527 5.89474L6.7799 4.63158H11.1979V8.98947L9.9173 8.90526L10.0454 6.56842L5.41396 11.3684L4.36816 10.3368L9.23433 5.76842Z" fill="black"/>
</svg>
